<?xml version="1.0" encoding="UTF-8"?>
<!DOCTYPE svg PUBLIC "-//W3C//DTD SVG 1.1//EN" "http://www.w3.org/Graphics/SVG/1.1/DTD/svg11.dtd">
<!-- Creator: CorelDRAW (Wersja próbna) -->
<svg xmlns="http://www.w3.org/2000/svg" xml:space="preserve" width="96.975mm" height="66.1458mm" version="1.1" style="shape-rendering:geometricPrecision; text-rendering:geometricPrecision; image-rendering:optimizeQuality; fill-rule:evenodd; clip-rule:evenodd"
viewBox="0 0 9697.5 6614.58"
 xmlns:xlink="http://www.w3.org/1999/xlink"
 xmlns:xodm="http://www.corel.com/coreldraw/odm/2003">
 <defs>
  <style type="text/css">
   <![CDATA[
    .fil0 {fill:white}
    .fil1 {fill:white;fill-rule:nonzero}
   ]]>
  </style>
 </defs>
 <g id="Warstwa_x0020_1">
  <metadata id="CorelCorpID_0Corel-Layer"/>
  <path class="fil0" d="M5599.19 3082.2c279.06,-74.34 486.2,-329.93 486.2,-631.57l0 -81.81c0,-293.3 -195.87,-543.04 -463.25,-624.96l-360.26 356.47 110.45 0c160.15,0 291.17,131.02 291.17,291.16l0 36.47c0,160.14 -131.02,291.16 -291.17,291.16l-140.08 0 -595.4 0 388.98 384.9 592.64 586.4 595.41 0 -614.69 -608.22z"/>
  <polygon class="fil0" points="4062.05,2710.95 5097.47,1686.43 4502.06,1686.43 3505.4,2672.61 3466.64,2710.95 3505.4,2749.3 4456.52,3690.42 5051.93,3690.42 4459.29,3104.02 4070.3,2719.12 4053.79,2719.12 "/>
  <path class="fil0" d="M4871.03 630.62l1208.28 697.6 -173.4 319.41 -1050.7 -606.63 -1426.64 823.67 0 1825.75 -363.45 0 0 -2035.43c596.71,-344.47 1193.45,-688.9 1790.08,-1033.51l15.83 9.14zm1774.27 1695.75l0 1364.05 -363.46 0 0 -1395.7 363.46 0 0 31.65z"/>
  <path class="fil1" d="M1096.84 5027.33l-277.81 -409.35 254.18 -384.39 -253.61 0 -209.77 334.5 0 -334.5 -218.85 0 0 793.74 218.85 0 0 -350.76 227.54 350.76 259.47 0zm-448.21 929.25l147.74 0 -95.37 -174.51c47.46,-28.25 76.16,-76.39 76.16,-135.73 0,-100.64 -75.02,-170.05 -178.28,-170.05l-207.9 0 0 480.29 132.42 0 0 -146.83 47.69 0 77.54 146.83zm-125.23 -362.97l60.05 0c36.81,0 58.08,22.08 58.08,52.38 0,30.19 -21.27,52.6 -58.08,52.6l-60.05 0 0 -104.98zm463.15 248.38l0 -72.04 157.69 0 0 -108.4 -157.69 0 0 -70.79 175.53 0 0 -114.36 -307.28 0 0 480.18 313.11 0 0 -114.59 -181.36 0zm575.54 114.59l145.58 0 -192.69 -480.29 -129.22 0 -188.57 480.29 141.68 0 26.65 -78.22 170.04 0 26.53 78.22zm-58.77 -181.83l-105.66 0 52.6 -148.66 53.06 148.66zm384.81 60.5l0 -358.96 -133.8 0 0 480.18 304.64 0 0 -121.22 -170.84 0zm230.53 121.33l133.81 0 0 -480.29 -133.81 0 0 480.29zm391.21 -123.39l176.91 -326.83 0 -29.96 -360.22 0 0 123.27 166.27 0 -177.93 329.23 0 27.57 380.12 0 0 -123.28 -185.15 0zm567.89 123.39l145.58 0 -192.69 -480.29 -129.22 0 -188.57 480.29 141.68 0 26.65 -78.22 170.04 0 26.53 78.22zm-58.77 -181.83l-105.66 0 52.6 -148.66 53.06 148.66zm458.44 193.95c127.97,0 225.97,-85.65 244.27,-211.9l-135.29 0c-13.49,53.29 -55.34,88.06 -108.75,88.06 -67.93,0 -117.78,-53.87 -117.78,-127.97 0,-74.33 49.85,-129.11 117.78,-129.11 50.66,0 92.06,32.02 108.64,81.31l134.03 0c-19.56,-121.78 -117,-204.93 -242.9,-204.93 -146.14,0 -255.23,108.29 -255.23,252.73 0,143.63 109.09,251.81 255.23,251.81l0 0zm459.94 -0.46c111.38,0 186.17,-72.5 186.17,-176.44l0 -315.51 -133.11 0 0 308.75c0,37.17 -21.72,60.38 -53.06,60.38 -32.93,0 -54.66,-23.66 -54.66,-60.38l0 -12.34 -133.11 0 0 18.97c0,104.3 77.19,176.57 187.77,176.57l0 0zm575.77 -11.66l145.58 0 -192.69 -480.29 -129.22 0 -188.57 480.29 141.68 0 26.65 -78.22 170.04 0 26.53 78.22zm-58.77 -181.83l-105.66 0 52.6 -148.66 53.06 148.66zm680.52 181.83l133.81 0 0 -480.29 -133.81 0 0 480.29zm526.96 -480.29l0 251.92 -184 -251.92 -115.85 0 0 480.29 128.31 0 0 -260.62 190.4 260.62 109.44 0 0 -480.29 -128.3 0zm750.28 0l-76.39 277.08 -116.52 -274.68 -45.75 0 -114.46 274.45 -77.89 -276.85 -142.14 0 150.38 480.29 116.53 0 90.34 -231.8 92.17 231.8 116.53 0 148.08 -480.29 -140.88 0zm323.51 365.7l0 -72.04 157.7 0 0 -108.4 -157.7 0 0 -70.79 175.54 0 0 -114.36 -307.28 0 0 480.18 313.11 0 0 -114.59 -181.37 0zm427.35 126.14c111.5,0 192.11,-54.44 192.11,-159.19 0,-109.43 -92.39,-132.99 -163.06,-151.17 -45.41,-11.32 -81.89,-20.25 -81.89,-47.46 0,-22.41 22.77,-32.59 46.55,-32.59 27.56,0 50.31,14.18 50.31,44.48l132.43 0c0,-97.66 -65.87,-156.78 -181.14,-156.78 -113.55,0 -183.08,54.21 -183.08,148.78 0,109.1 88.63,130.25 158.15,147.51 46.09,10.99 83.37,19.68 83.37,49.75 0,26.19 -26.42,40.94 -54.1,40.94 -30.07,0 -56.49,-16.69 -56.49,-50.89l-136.53 0c0,104.53 76.04,166.62 193.37,166.62l0 0zm612.14 -491.73l-393.84 0 0 119.16 130.48 0 0 361.02 132.88 0 0 -361.02 130.48 0 0 -119.16zm486.69 -0.11l-146.72 0 -87.59 173.59 -87.59 -173.59 -146.83 0 166.61 292.06 0 188.23 134.48 0 0 -187.89 167.64 -292.4zm241.52 492.41c127.97,0 225.97,-85.65 244.27,-211.9l-135.29 0c-13.49,53.29 -55.34,88.06 -108.75,88.06 -67.93,0 -117.78,-53.87 -117.78,-127.97 0,-74.33 49.85,-129.11 117.78,-129.11 50.66,0 92.06,32.02 108.64,81.31l134.03 0c-19.56,-121.78 -117,-204.93 -242.9,-204.93 -146.14,0 -255.23,108.29 -255.23,252.73 0,143.63 109.09,251.81 255.23,251.81l0 0zm459.94 -0.46c111.38,0 186.17,-72.5 186.17,-176.44l0 -315.51 -133.11 0 0 308.75c0,37.17 -21.72,60.38 -53.06,60.38 -32.93,0 -54.66,-23.66 -54.66,-60.38l0 -12.34 -133.11 0 0 18.97c0,104.3 77.19,176.57 187.77,176.57l0 0zm274.68 -11.66l133.8 0 0 -480.29 -133.8 0 0 480.29zm-7731.58 -909.22c254.56,0 435.8,-173.68 435.8,-416.9 0,-243.23 -181.24,-416.9 -435.8,-416.9 -255.14,0 -437.13,174.24 -437.13,416.9 0,242.65 181.99,416.9 437.13,416.9l0 0zm0 -203.35c-120.77,0 -209.59,-89.96 -209.59,-213.55 0,-123.6 88.82,-213.55 209.59,-213.55 120.75,0 208.26,89.38 208.26,213.55 0,124.34 -87.51,213.55 -208.26,213.55l0 0zm1545.71 183.32l-118.87 -793.74 -218.47 0 -188.05 431.83 -186.9 -431.83 -218.47 0 -120 793.74 221.49 0 61.23 -456.97 210.34 458.1 64.63 0 210.53 -458.29 62 457.16 220.54 0zm445.62 -793.74l-337.71 0 0 793.74 218.85 0 0 -219.98 118.86 0c168.76,0 293.88,-120.95 293.88,-287.45 0,-166.31 -125.12,-286.31 -293.88,-286.31l0 0zm-26.27 383.26l-92.59 0 0 -192.76 92.59 0c57.65,0 95.63,39.87 95.63,96.38 0,56.51 -37.98,96.38 -95.63,96.38l0 0zm641.05 209.96l0 -593.22 -221.12 0 0 793.55 503.46 0 0 -200.33 -282.34 0zm598.71 11.15l0 -119.06 260.61 0 0 -179.16 -260.61 0 0 -116.98 290.09 0 0 -188.99 -507.8 0 0 793.56 517.44 0 0 -189.37 -299.73 0zm1131.08 189.37l-277.81 -409.35 254.18 -384.39 -253.61 0 -209.78 334.5 0 -334.5 -218.85 0 0 793.74 218.85 0 0 -350.76 227.54 350.76 259.48 0zm315.6 19.09c184.26,0 317.5,-89.96 317.5,-263.07 0,-180.86 -152.7,-219.79 -269.5,-249.84 -75.02,-18.71 -135.31,-33.45 -135.31,-78.43 0,-37.05 37.61,-53.86 76.92,-53.86 45.54,0 83.15,23.43 83.15,73.51l218.85 0c0,-161.39 -108.86,-259.09 -299.36,-259.09 -187.66,0 -302.57,89.57 -302.57,245.87 0,180.29 146.47,215.25 261.37,243.79 76.17,18.14 137.78,32.5 137.78,82.21 0,43.27 -43.66,67.65 -89.39,67.65 -49.71,0 -93.36,-27.59 -93.36,-84.1l-225.66 0c0,172.73 125.69,275.36 319.58,275.36l0 0zm827.57 0.94c254.56,0 435.8,-173.68 435.8,-416.9 0,-243.23 -181.24,-416.9 -435.8,-416.9 -255.13,0 -437.13,174.24 -437.13,416.9 0,242.65 182,416.9 437.13,416.9l0 0zm0 -203.35c-120.77,0 -209.59,-89.96 -209.59,-213.55 0,-123.6 88.82,-213.55 209.59,-213.55 120.76,0 208.26,89.38 208.26,213.55 0,124.34 -87.5,213.55 -208.26,213.55l0 0zm1396.8 -610.42l-126.26 457.91 -192.57 -453.94 -75.59 0 -189.18 453.56 -128.69 -457.53 -234.92 0 248.52 793.74 192.57 0 149.31 -383.08 152.32 383.08 192.58 0 244.73 -793.74 -232.82 0zm781.64 793.74l240.58 0 -318.44 -793.74 -213.55 0 -311.64 793.74 234.15 0 44.04 -129.27 281.02 0 43.84 129.27zm-97.14 -300.49l-174.63 0 86.94 -245.69 87.69 245.69z"/>
  <polygon class="fil0" points="6645.3,1654.99 6223.25,1411.34 6049.86,1730.74 6281.85,1864.67 6281.85,2076.69 6281.85,2137.99 6645.3,2137.99 "/>
 </g>
</svg>
