<?xml version="1.0" encoding="UTF-8"?>
<!DOCTYPE svg PUBLIC "-//W3C//DTD SVG 1.1//EN" "http://www.w3.org/Graphics/SVG/1.1/DTD/svg11.dtd">
<!-- Creator: CorelDRAW (Wersja próbna) -->
<svg xmlns="http://www.w3.org/2000/svg" xml:space="preserve" width="141.4mm" height="33.04mm" version="1.1" style="shape-rendering:geometricPrecision; text-rendering:geometricPrecision; image-rendering:optimizeQuality; fill-rule:evenodd; clip-rule:evenodd"
viewBox="0 0 14140 3304"
 xmlns:xlink="http://www.w3.org/1999/xlink"
 xmlns:xodm="http://www.corel.com/coreldraw/odm/2003">
 <defs>
  <style type="text/css">
   <![CDATA[
    .fil0 {fill:#706F6E}
    .fil2 {fill:#E7402A}
    .fil1 {fill:#201E1D;fill-rule:nonzero}
   ]]>
  </style>
 </defs>
 <g id="Warstwa_x0020_1">
  <metadata id="CorelCorpID_0Corel-Layer"/>
  <path class="fil0" d="M2710.16 2639.34c299.26,-79.72 521.39,-353.82 521.39,-677.29l0 -87.74c0,-314.53 -210.04,-582.35 -496.78,-670.2l-386.35 382.27 118.46 0c171.74,0 312.24,140.51 312.24,312.25l0 39.1c0,171.73 -140.51,312.24 -312.24,312.24l-150.22 0 -638.51 0 417.14 412.76 635.54 628.85 638.51 0 -659.18 -652.24z"/>
  <polygon class="fil0" points="1061.74,2241.21 2172.11,1142.52 1533.6,1142.52 464.79,2200.09 423.23,2241.21 464.79,2282.34 1484.77,3291.58 2123.28,3291.58 1487.74,2662.73 1070.59,2249.97 1052.88,2249.97 "/>
  <path class="fil0" d="M1929.28 10.28l1295.75 748.1 -185.95 342.53 -1126.76 -650.54 -1529.91 883.3 0 1957.91 -389.77 0 0 -2182.77c639.91,-369.41 1279.85,-738.77 1919.67,-1108.33l16.97 9.8zm1902.72 1818.51l0 1462.79 -389.77 0 0 -1496.73 389.77 0 0 33.94z"/>
  <g id="_475196296">
   <path class="fil1" d="M5224.08 2295.06l-297.92 -438.98 272.58 -412.22 -271.97 0 -224.96 358.72 0 -358.72 -234.69 0 0 851.2 234.69 0 0 -376.15 244.01 376.15 278.26 0zm439.18 21.48c272.99,0 467.35,-186.25 467.35,-447.08 0,-260.83 -194.36,-447.08 -467.35,-447.08 -273.6,0 -468.77,186.86 -468.77,447.08 0,260.22 195.17,447.08 468.77,447.08l0 0zm0 -218.07c-129.51,0 -224.76,-96.47 -224.76,-229.01 0,-132.54 95.25,-229.01 224.76,-229.01 129.5,0 223.34,95.86 223.34,229.01 0,133.35 -93.84,229.01 -223.34,229.01l0 0zm1657.61 196.59l-127.48 -851.2 -234.28 0 -201.66 463.09 -200.43 -463.09 -234.29 0 -128.69 851.2 237.53 0 65.66 -490.05 225.57 491.27 69.31 0 225.77 -491.47 66.48 490.25 236.51 0zm477.88 -851.2l-362.16 0 0 851.2 234.69 0 0 -235.9 127.47 0c180.98,0 315.15,-129.71 315.15,-308.26 0,-178.35 -134.17,-307.04 -315.15,-307.04l0 0zm-28.17 411.01l-99.3 0 0 -206.72 99.3 0c61.82,0 102.55,42.76 102.55,103.36 0,60.6 -40.73,103.36 -102.55,103.36l0 0zm687.45 225.16l0 -636.17 -237.12 0 0 851 539.9 0 0 -214.83 -302.78 0zm642.05 11.96l0 -127.68 279.48 0 0 -192.13 -279.48 0 0 -125.45 311.09 0 0 -202.67 -544.56 0 0 851 554.9 0 0 -203.07 -321.43 0zm1212.96 203.07l-297.92 -438.98 272.58 -412.22 -271.97 0 -224.96 358.72 0 -358.72 -234.69 0 0 851.2 234.69 0 0 -376.15 244.01 376.15 278.26 0zm338.45 20.47c197.6,0 340.48,-96.47 340.48,-282.11 0,-193.95 -163.75,-235.7 -289,-267.93 -80.46,-20.06 -145.11,-35.87 -145.11,-84.1 0,-39.73 40.33,-57.76 82.49,-57.76 48.84,0 89.17,25.13 89.17,78.83l234.69 0c0,-173.07 -116.74,-277.85 -321.03,-277.85 -201.24,0 -324.47,96.06 -324.47,263.67 0,193.34 157.07,230.83 280.29,261.44 81.68,19.45 147.75,34.85 147.75,88.16 0,46.41 -46.82,72.55 -95.86,72.55 -53.31,0 -100.12,-29.59 -100.12,-90.19l-241.99 0c0,185.24 134.78,295.29 342.71,295.29l0 0zm887.48 1.01c272.99,0 467.35,-186.25 467.35,-447.08 0,-260.83 -194.36,-447.08 -467.35,-447.08 -273.6,0 -468.77,186.86 -468.77,447.08 0,260.22 195.17,447.08 468.77,447.08l0 0zm0 -218.07c-129.51,0 -224.76,-96.47 -224.76,-229.01 0,-132.54 95.25,-229.01 224.76,-229.01 129.5,0 223.34,95.86 223.34,229.01 0,133.35 -93.84,229.01 -223.34,229.01l0 0zm1497.91 -654.61l-135.39 491.06 -206.51 -486.8 -81.07 0 -202.87 486.4 -138.01 -490.66 -251.92 0 266.51 851.2 206.51 0 160.11 -410.81 163.35 410.81 206.52 0 262.45 -851.2 -249.68 0zm838.23 851.2l257.99 0 -341.49 -851.2 -229.01 0 -334.2 851.2 251.1 0 47.23 -138.62 301.36 0 47.02 138.62zm-104.17 -322.24l-187.27 0 93.23 -263.47 94.04 263.47z"/>
   <path class="fil1" d="M4743.42 3291.58l158.44 0 -102.28 -187.14c50.9,-30.29 81.68,-81.92 81.68,-145.56 0,-107.92 -80.45,-182.36 -191.19,-182.36l-222.95 0 0 515.06 142.01 0 0 -157.46 51.14 0 83.15 157.46zm-134.29 -389.24l64.39 0c39.48,0 62.29,23.67 62.29,56.17 0,32.37 -22.81,56.41 -62.29,56.41l-64.39 0 0 -112.58zm496.67 266.36l0 -77.26 169.11 0 0 -116.25 -169.11 0 0 -75.91 188.24 0 0 -122.64 -329.52 0 0 514.94 335.77 0 0 -122.88 -194.49 0zm617.21 122.88l156.12 0 -206.64 -515.06 -138.58 0 -202.22 515.06 151.94 0 28.58 -83.88 182.35 0 28.45 83.88zm-63.03 -194.99l-113.31 0 56.41 -159.42 56.9 159.42zm412.67 64.88l0 -384.95 -143.49 0 0 514.94 326.7 0 0 -129.99 -183.21 0zm247.22 130.11l143.49 0 0 -515.06 -143.49 0 0 515.06zm419.53 -132.32l189.72 -350.49 0 -32.13 -386.3 0 0 132.2 178.31 0 -190.82 353.06 0 29.56 407.64 0 0 -132.2 -198.55 0zm609 132.32l156.12 0 -206.64 -515.06 -138.58 0 -202.22 515.06 151.94 0 28.58 -83.88 182.35 0 28.45 83.88zm-63.03 -194.99l-113.31 0 56.41 -159.42 56.9 159.42zm491.63 207.99c137.23,0 242.33,-91.85 261.95,-227.24l-145.08 0c-14.47,57.15 -59.35,94.43 -116.62,94.43 -72.85,0 -126.31,-57.76 -126.31,-137.23 0,-79.71 53.46,-138.45 126.31,-138.45 54.32,0 98.72,34.33 116.5,87.19l143.73 0c-20.97,-130.6 -125.46,-219.76 -260.48,-219.76 -156.72,0 -273.71,116.13 -273.71,271.02 0,154.03 116.99,270.04 273.71,270.04l0 0zm493.24 -0.49c119.44,0 199.64,-77.75 199.64,-189.22l0 -338.35 -142.74 0 0 331.11c0,39.86 -23.3,64.75 -56.9,64.75 -35.32,0 -58.62,-25.38 -58.62,-64.75l0 -13.24 -142.75 0 0 20.35c0,111.84 82.78,189.35 201.37,189.35l0 0zm617.45 -12.51l156.12 0 -206.64 -515.06 -138.58 0 -202.22 515.06 151.94 0 28.58 -83.88 182.35 0 28.45 83.88zm-63.03 -194.99l-113.31 0 56.41 -159.42 56.9 159.42zm729.79 194.99l143.49 0 0 -515.06 -143.49 0 0 515.06zm565.1 -515.06l0 270.16 -197.32 -270.16 -124.23 0 0 515.06 137.6 0 0 -279.48 204.18 279.48 117.36 0 0 -515.06 -137.59 0zm804.6 0l-81.92 297.14 -124.96 -294.56 -49.06 0 -122.75 294.32 -83.52 -296.9 -152.43 0 161.26 515.06 124.97 0 96.88 -248.58 98.84 248.58 124.96 0 158.81 -515.06 -151.08 0zm346.93 392.18l0 -77.26 169.11 0 0 -116.25 -169.11 0 0 -75.91 188.24 0 0 -122.64 -329.52 0 0 514.94 335.77 0 0 -122.88 -194.49 0zm458.28 135.27c119.57,0 206.02,-58.38 206.02,-170.71 0,-117.36 -99.08,-142.62 -174.87,-162.12 -48.69,-12.14 -87.81,-21.71 -87.81,-50.89 0,-24.04 24.41,-34.95 49.92,-34.95 29.55,0 53.95,15.2 53.95,47.7l142.01 0c0,-104.73 -70.63,-168.13 -194.25,-168.13 -121.77,0 -196.33,58.13 -196.33,159.55 0,116.99 95.04,139.68 169.6,158.19 49.42,11.78 89.4,21.1 89.4,53.35 0,28.08 -28.33,43.9 -58.01,43.9 -32.25,0 -60.58,-17.9 -60.58,-54.57l-146.42 0c0,112.09 81.55,178.68 207.37,178.68l0 0zm656.46 -527.33l-422.35 0 0 127.79 139.92 0 0 387.15 142.5 0 0 -387.15 139.93 0 0 -127.79zm521.92 -0.12l-157.34 0 -93.93 186.16 -93.94 -186.16 -157.46 0 178.68 313.21 0 201.85 144.21 0 0 -201.49 179.78 -313.57zm259 528.06c137.23,0 242.33,-91.85 261.95,-227.24l-145.08 0c-14.47,57.15 -59.35,94.43 -116.62,94.43 -72.85,0 -126.31,-57.76 -126.31,-137.23 0,-79.71 53.46,-138.45 126.31,-138.45 54.32,0 98.72,34.33 116.5,87.19l143.73 0c-20.97,-130.6 -125.46,-219.76 -260.48,-219.76 -156.72,0 -273.71,116.13 -273.71,271.02 0,154.03 116.99,270.04 273.71,270.04l0 0zm493.24 -0.49c119.44,0 199.64,-77.75 199.64,-189.22l0 -338.35 -142.74 0 0 331.11c0,39.86 -23.3,64.75 -56.9,64.75 -35.32,0 -58.62,-25.38 -58.62,-64.75l0 -13.24 -142.75 0 0 20.35c0,111.84 82.78,189.35 201.37,189.35l0 0zm294.56 -12.51l143.49 0 0 -515.06 -143.49 0 0 515.06z"/>
  </g>
  <polygon class="fil2" points="3832,1108.81 3379.39,847.52 3193.45,1190.04 3442.23,1333.67 3442.23,1561.03 3442.23,1626.77 3832,1626.77 "/>
 </g>
</svg>
