<?xml version="1.0" encoding="UTF-8"?>
<!DOCTYPE svg PUBLIC "-//W3C//DTD SVG 1.1//EN" "http://www.w3.org/Graphics/SVG/1.1/DTD/svg11.dtd">
<!-- Creator: CorelDRAW (Wersja próbna) -->
<svg xmlns="http://www.w3.org/2000/svg" xml:space="preserve" width="40mm" height="40mm" version="1.1" style="shape-rendering:geometricPrecision; text-rendering:geometricPrecision; image-rendering:optimizeQuality; fill-rule:evenodd; clip-rule:evenodd"
viewBox="0 0 4000 4000"
 xmlns:xlink="http://www.w3.org/1999/xlink"
 xmlns:xodm="http://www.corel.com/coreldraw/odm/2003">
 <defs>
  <style type="text/css">
   <![CDATA[
    .fil0 {fill:#706F6E}
   ]]>
  </style>
 </defs>
 <g id="Warstwa_x0020_1">
  <metadata id="CorelCorpID_0Corel-Layer"/>
  <path class="fil0" d="M2784.47 2987.34c299.26,-79.72 521.39,-353.82 521.39,-677.29l0 -87.74c0,-314.53 -210.04,-582.35 -496.78,-670.2l-386.35 382.27 118.46 0c171.74,0 312.24,140.51 312.24,312.25l0 39.1c0,171.73 -140.51,312.24 -312.24,312.24l-150.22 0 -638.51 0 417.14 412.76 635.54 628.85 638.51 0 -659.18 -652.24z"/>
  <polygon class="fil0" points="1136.05,2589.21 2246.42,1490.52 1607.91,1490.52 539.1,2548.09 497.54,2589.21 539.1,2630.34 1559.08,3639.58 2197.59,3639.58 1562.05,3010.73 1144.9,2597.97 1127.19,2597.97 "/>
  <path class="fil0" d="M2003.59 358.28l1295.75 748.1 -185.95 342.53 -1126.76 -650.54 -1529.91 883.3 0 1957.91 -389.77 0 0 -2182.77c639.91,-369.41 1279.85,-738.77 1919.67,-1108.33l16.97 9.8zm1902.72 1818.51l0 1462.79 -389.77 0 0 -1496.73 389.77 0 0 33.94z"/>
  <polygon class="fil0" points="3906.31,1456.81 3453.7,1195.52 3267.76,1538.04 3516.54,1681.67 3516.54,1909.03 3516.54,1974.77 3906.31,1974.77 "/>
 </g>
</svg>
